<svg width="30" height="28" viewBox="0 0 30 28" fill="none" xmlns="http://www.w3.org/2000/svg">
<path d="M21.3185 6.08685C20.9521 6.08685 20.6533 5.78803 20.6533 5.42165V0.665193C20.6533 0.298805 20.9521 0 21.3185 0C21.6849 0 21.9837 0.298818 21.9837 0.665193V5.42165C21.9837 5.78804 21.6849 6.08685 21.3185 6.08685Z" fill="#FFFFFF"/>
<path d="M8.67984 6.08685C8.31345 6.08685 8.01465 5.78803 8.01465 5.42165V0.665193C8.01465 0.298805 8.31347 0 8.67984 0C9.04622 0 9.34503 0.298818 9.34503 0.665193V5.42165C9.34503 5.78804 9.04622 6.08685 8.67984 6.08685Z" fill="#FFFFFF"/>
<path d="M10.6753 1.89547H19.3228V3.1596H10.6753V1.89547Z" fill="#FFFFFF"/>
<path d="M27.4376 1.89547H23.3141V3.1596H27.4376C28.1366 3.1596 28.7017 3.72475 28.7017 4.42373V9.67909H1.29646V10.9757H28.7357V25.2434C28.7357 25.9424 28.1705 26.5075 27.4715 26.5075H2.56073C1.86174 26.5075 1.29659 25.9424 1.29659 25.2434V4.45746C1.29659 3.75847 1.86174 3.19332 2.56073 3.19332H6.68426V1.92919H2.56073C1.16409 1.92919 0 3.05949 0 4.48992V25.3111C0 26.7078 1.1303 27.8718 2.56073 27.8718H27.4393C28.8359 27.8718 30 26.7415 30 25.3111V4.45766C30 3.02723 28.8359 1.89563 27.438 1.89563L27.4376 1.89547Z" fill="#FFFFFF"/>
</svg>
