<svg width="30" height="30" viewBox="0 0 30 30" fill="none" xmlns="http://www.w3.org/2000/svg">
<path d="M24.375 12.1875C24.375 10.6348 23.1152 9.37501 21.5625 9.37501H15.9375V8.26525C17.2289 7.80823 18.0035 6.48751 17.7715 5.13745C17.5406 3.78745 16.3699 2.80072 15 2.80072C13.6301 2.80072 12.4594 3.78745 12.2285 5.13745C11.9965 6.48745 12.7711 7.80814 14.0625 8.26525V9.37501H8.4375C6.88476 9.37501 5.625 10.6348 5.625 12.1875V24.375C5.625 25.9278 6.88476 27.1875 8.4375 27.1875H21.5625C23.1152 27.1875 24.375 25.9278 24.375 24.375V12.1875ZM15 4.68751C15.3797 4.68751 15.7207 4.91603 15.866 5.26642C16.0113 5.61682 15.9305 6.01993 15.6633 6.28828C15.3949 6.55547 14.9918 6.63634 14.6414 6.49101C14.291 6.3457 14.0625 6.00468 14.0625 5.625C14.0625 5.10702 14.482 4.68751 15 4.68751ZM22.5 24.375C22.5 24.6234 22.4016 24.8625 22.2258 25.0383C22.05 25.2141 21.8109 25.3125 21.5625 25.3125H8.43751C7.91953 25.3125 7.50001 24.893 7.50001 24.375V12.1875C7.50001 11.6695 7.91953 11.25 8.43751 11.25H14.0625V12.1875C14.0625 12.7055 14.482 13.125 15 13.125C15.518 13.125 15.9375 12.7055 15.9375 12.1875V11.25H21.5625C21.8109 11.25 22.05 11.3484 22.2258 11.5242C22.4016 11.7 22.5 11.9391 22.5 12.1875V24.375Z" fill="#2E2E38"/>
<path d="M10.3125 15.9375H15.9375C16.4555 15.9375 16.875 15.518 16.875 15C16.875 14.482 16.4555 14.0625 15.9375 14.0625H10.3125C9.79452 14.0625 9.375 14.482 9.375 15C9.375 15.518 9.79452 15.9375 10.3125 15.9375Z" fill="#2E2E38"/>
<path d="M19.6875 17.8125H10.3125C9.79452 17.8125 9.375 18.232 9.375 18.75C9.375 19.268 9.79452 19.6875 10.3125 19.6875H19.6875C20.2055 19.6875 20.625 19.268 20.625 18.75C20.625 18.232 20.2055 17.8125 19.6875 17.8125Z" fill="#2E2E38"/>
<path d="M19.6875 21.5625H10.3125C9.79452 21.5625 9.375 21.982 9.375 22.5C9.375 23.018 9.79452 23.4375 10.3125 23.4375H19.6875C20.2055 23.4375 20.625 23.018 20.625 22.5C20.625 21.982 20.2055 21.5625 19.6875 21.5625Z" fill="#2E2E38"/>
</svg>
