<svg width="30" height="31" viewBox="0 0 30 31" fill="none" xmlns="http://www.w3.org/2000/svg">
<g clip-path="url(#clip0_207_147)">
<path d="M23.8358 8.6141C23.5112 8.46879 23.1854 8.33988 22.862 8.22386C23.2265 8.12073 23.5921 8.00472 23.9565 7.86644C26.6929 6.8258 29.1117 4.84424 28.4379 3.07244C28.2434 2.56151 27.62 1.70486 25.6231 1.70486C24.518 1.70486 23.1973 1.97556 21.9046 2.46659C20.5722 2.97284 19.4249 3.64784 18.6106 4.37675V3.24941C18.6106 1.733 17.3789 0.500179 15.8625 0.500179C14.3461 0.500179 13.1121 1.733 13.1121 3.24941V8.81921C12.7653 8.65983 12.3797 8.56843 11.9731 8.56843C11.2149 8.56843 10.527 8.87662 10.0289 9.37585C9.53086 8.87779 8.84298 8.56843 8.08476 8.56843C6.89178 8.56843 5.87811 9.33367 5.49843 10.3977C5.10819 10.1809 4.66053 10.0556 4.18359 10.0556C2.68359 10.0556 1.46484 11.2755 1.46484 12.7743V13.6427L1.44727 13.6438V21.9196C1.44727 26.6506 5.29687 30.5002 10.03 30.5002C14.7619 30.5002 18.6106 26.6506 18.6106 21.9196V12.0769C19.3887 12.7707 20.3965 13.4023 21.4699 13.884C22.8926 14.5226 24.327 14.8742 25.5082 14.8742C27.2274 14.8742 27.8262 14.1148 28.0278 13.6625C28.2434 13.1843 28.4109 12.18 27.1219 10.8242C26.3356 9.99802 25.1694 9.21293 23.8358 8.6141ZM18.983 6.43208C19.2784 5.77466 20.4971 4.72466 22.4765 3.97232C23.5922 3.54809 24.709 3.3149 25.6229 3.3149C26.5089 3.3149 26.8933 3.54107 26.9319 3.64421C27.0491 3.95123 26.0108 5.36336 23.3847 6.36179C22.2691 6.78485 21.1523 7.01804 20.2383 7.01804C19.3524 7.01804 18.968 6.79187 18.9282 6.68639C18.9165 6.65475 18.9221 6.56802 18.983 6.43208ZM17.0002 8.56841H14.7233V7.48208H17.0002V8.56841ZM15.8623 2.11031C16.4893 2.11031 17.0002 2.62124 17.0002 3.24938V5.87204H14.7233V3.24938C14.7233 2.62124 15.2342 2.11031 15.8623 2.11031ZM11.974 10.1788C12.6022 10.1788 13.1131 10.6897 13.1131 11.319V13.4448C12.26 13.296 11.633 13.2667 11.5721 13.2644C11.3811 13.2644 11.1233 13.2655 10.8362 13.289V11.3179C10.835 10.6909 11.3459 10.1788 11.974 10.1788ZM6.94662 11.319C6.94662 10.6909 7.45638 10.1788 8.08452 10.1788C8.71266 10.1788 9.22359 10.6897 9.22359 11.319V13.7554C8.60718 14.1351 8.12907 14.8112 8.12907 16.0147C8.12907 16.9429 8.59548 17.5007 9.22359 17.8663V19.2948C9.22359 19.923 8.71266 20.4339 8.08452 20.4339C7.45638 20.4339 6.94662 19.923 6.94662 19.2948V11.319ZM3.07602 12.7757C3.07602 12.164 3.57288 11.6671 4.18461 11.6671C4.79517 11.6671 5.29086 12.164 5.29086 12.7757V17.9039C5.29086 18.5145 4.794 19.0113 4.18461 19.0113C3.57288 19.0113 3.07602 18.5145 3.07602 17.9039V12.7757ZM17.0002 21.9197C17.0002 25.7633 13.8736 28.8887 10.03 28.8887C6.18642 28.8887 3.05862 25.7621 3.05862 21.9197V20.374C3.40197 20.531 3.78168 20.6213 4.18479 20.6213C4.66878 20.6213 5.12463 20.4924 5.51838 20.2685C5.9133 21.3045 6.91407 22.0439 8.08596 22.0439C9.60237 22.0439 10.8352 20.8111 10.8352 19.2947V18.4463C10.9606 18.4767 11.0836 18.5049 11.2032 18.5318C11.8325 18.676 12.545 18.8388 12.8016 19.0955C13.3266 19.6205 13.3032 21.5049 13.1239 22.6136C13.0524 23.053 13.35 23.4667 13.7883 23.5382C13.8317 23.5452 13.8762 23.5487 13.9196 23.5487C14.3075 23.5487 14.6485 23.2675 14.7129 22.8737C14.8102 22.2796 15.2321 19.2491 13.9406 17.9564C13.3571 17.3729 12.4453 17.1631 11.5629 16.9615C10.2785 16.6674 9.74065 16.4705 9.74065 16.0147C9.74065 15.0889 10.0828 14.8756 11.5383 14.8744C11.5934 14.8768 17.0004 15.1791 17.0004 18.124V19.2947L17.0016 21.9197L17.0002 21.9197ZM17.0002 14.9762C16.4834 14.5766 15.8201 14.2098 14.9506 13.9098C14.8745 13.884 14.7983 13.8594 14.7221 13.836V10.1787H16.9991V13.644L17.0002 14.9762ZM26.5591 13.0039C26.5205 13.0883 26.2146 13.2641 25.508 13.2641C24.5634 13.2641 23.3306 12.9547 22.1294 12.4157C19.5665 11.2637 18.6125 9.79535 18.7484 9.49535C18.7859 9.4098 19.0929 9.23519 19.7972 9.23519C20.7429 9.23519 21.9745 9.54455 23.177 10.0836C24.3067 10.591 25.3192 11.266 25.9555 11.9352C26.5051 12.5141 26.6013 12.9114 26.5591 13.0039Z" fill="#FFFFFF"/>
</g>
<defs>
<clipPath id="clip0_207_147">
<rect width="30" height="30" fill="#2E2E38" transform="translate(0 0.5)"/>
</clipPath>
</defs>
</svg>
