<svg width="30" height="26" viewBox="0 0 30 26" fill="none" xmlns="http://www.w3.org/2000/svg">
<path fill-rule="evenodd" clip-rule="evenodd" d="M14.9833 1.24997C14.0595 1.24997 13.3103 1.99884 13.3103 2.92417C13.3103 3.84816 14.0593 4.59719 14.9833 4.59719C15.9077 4.59719 16.6575 3.84768 16.6575 2.92417C16.6575 1.99921 15.9075 1.24997 14.9833 1.24997ZM12.0603 2.92417C12.0603 1.30895 13.3687 0 14.9833 0C16.5974 0 17.9075 1.30845 17.9075 2.92417C17.9075 4.53884 16.5972 5.84715 14.9833 5.84715C13.369 5.84715 12.0603 4.53849 12.0603 2.92417Z" fill="#FFFFFF"/>
<path fill-rule="evenodd" clip-rule="evenodd" d="M10.5732 11.269C10.5732 8.81074 12.5549 6.784 14.9997 6.784C17.4458 6.784 19.4261 8.81087 19.4261 11.269L19.4261 11.2693L19.4249 13.8356C19.4247 14.1807 19.1449 14.4603 18.7999 14.4603H11.1982C10.8531 14.4603 10.5732 14.1805 10.5732 13.8353V11.269ZM14.9997 8.03396C13.2633 8.03396 11.8232 9.48287 11.8232 11.269V13.2103H18.1752L18.1762 11.269C18.1762 11.2689 18.1762 11.2688 18.1762 11.2687C18.176 9.48258 16.737 8.03396 14.9997 8.03396Z" fill="#FFFFFF"/>
<path fill-rule="evenodd" clip-rule="evenodd" d="M5.21637 4.77371C5.44993 4.87044 5.60222 5.09834 5.60222 5.35114V7.1179H8.87013C9.2153 7.1179 9.49512 7.39772 9.49512 7.74288V11.6662C9.49512 12.0114 9.2153 12.2912 8.87013 12.2912H5.60222V14.0556C5.60222 14.3084 5.44997 14.5362 5.21645 14.633C4.98293 14.7297 4.71413 14.6763 4.53537 14.4976L0.183114 10.1465C0.06589 10.0293 2.2053e-05 9.87036 5.50972e-09 9.7046C-2.19884e-05 9.53884 0.0658037 9.37987 0.182996 9.26265L4.53525 4.90926C4.71398 4.73049 4.98281 4.67699 5.21637 4.77371ZM1.50885 9.7044L4.35226 12.547V11.6662C4.35226 11.321 4.63207 11.0412 4.97724 11.0412H8.24515V8.36787H4.97724C4.63207 8.36787 4.35226 8.08805 4.35226 7.74288V6.86026L1.50885 9.7044Z" fill="#FFFFFF"/>
<path fill-rule="evenodd" clip-rule="evenodd" d="M24.7837 4.77371C25.0172 4.67699 25.286 4.73049 25.4648 4.90926L29.817 9.26265C29.9342 9.37987 30.0001 9.53884 30 9.7046C30 9.87036 29.9341 10.0293 29.8169 10.1465L25.4647 14.4976C25.2859 14.6763 25.0171 14.7297 24.7836 14.633C24.5501 14.5362 24.3978 14.3084 24.3978 14.0556V12.2912H21.1311C20.7859 12.2912 20.5061 12.0114 20.5061 11.6662V7.74288C20.5061 7.39772 20.7859 7.1179 21.1311 7.1179H24.3978V5.35114C24.3978 5.09834 24.5501 4.87044 24.7837 4.77371ZM25.6478 6.86025V7.74288C25.6478 8.08805 25.368 8.36787 25.0228 8.36787H21.7561V11.0412H25.0228C25.368 11.0412 25.6478 11.321 25.6478 11.6662V12.547L28.4912 9.7044L25.6478 6.86025Z" fill="#FFFFFF"/>
<path fill-rule="evenodd" clip-rule="evenodd" d="M12.4133 17.0763C12.4133 16.7312 12.6931 16.4514 13.0383 16.4514H16.9617C17.3068 16.4514 17.5866 16.7312 17.5866 17.0763V20.3431H19.3522C19.605 20.3431 19.8329 20.4953 19.9296 20.7288C20.0264 20.9624 19.9729 21.2312 19.7942 21.4099L15.442 25.7633C15.3247 25.8805 15.1657 25.9464 15 25.9464C14.8342 25.9464 14.6752 25.8805 14.558 25.7633L10.2057 21.4099C10.027 21.2312 9.97357 20.9624 10.0703 20.7288C10.1671 20.4953 10.3949 20.3431 10.6477 20.3431H12.4133V17.0763ZM13.6633 17.7013V20.968C13.6633 21.3132 13.3834 21.593 13.0383 21.593H12.1563L15 24.4375L17.8437 21.593H16.9617C16.6165 21.593 16.3367 21.3132 16.3367 20.968V17.7013H13.6633Z" fill="#FFFFFF"/>
</svg>
