<svg width="30" height="30" viewBox="0 0 30 30" fill="none" xmlns="http://www.w3.org/2000/svg">
<path fill-rule="evenodd" clip-rule="evenodd" d="M27.4997 0H2.50074C1.12004 0.00143218 0.00142998 1.12004 0 2.50074V21.6672C0.00143218 23.0465 1.12004 24.1651 2.50074 24.1665H9.1681V28.3329H8.3331C7.87334 28.3329 7.50096 28.7067 7.50096 29.1664C7.50096 29.6262 7.87334 30 8.3331 30H21.6674C22.1272 30 22.4996 29.6262 22.4996 29.1664C22.4996 28.7067 22.1272 28.3329 21.6674 28.3329H20.8339V24.1665H27.4998C28.8805 24.1651 29.9991 23.0465 30.0005 21.6672V2.50074C29.9991 1.12004 28.8804 0.00142998 27.4997 0ZM19.1666 28.333H10.8335V24.1666H19.1666V28.333ZM28.3331 21.6656V21.6671C28.3331 22.1268 27.9593 22.4992 27.4995 22.4992H2.50059C2.04083 22.4992 1.66702 22.1268 1.66702 21.6671V2.50059C1.66702 2.04084 2.04083 1.66703 2.50059 1.66703H27.4995C27.9593 1.66703 28.3331 2.04084 28.3331 2.50059V21.6656ZM19.5806 11.3607L13.747 8.02781V8.02638C13.4892 7.87886 13.1727 7.88029 12.9149 8.02924C12.6585 8.1782 12.501 8.45318 12.501 8.74966V15.417C12.501 15.7135 12.6585 15.9885 12.9149 16.1374C13.1727 16.2864 13.4892 16.2878 13.747 16.1403L19.5806 12.8074C19.8398 12.6585 20.0003 12.382 20.0003 12.0841C20.0003 11.7848 19.8398 11.5082 19.5806 11.3607ZM14.1665 13.9803V10.1861L17.4865 12.0838L14.1665 13.9803ZM21.3926 10.2449C21.2579 9.80519 21.5043 9.33828 21.944 9.20365L21.9443 9.20388C22.384 9.06925 22.8509 9.31561 22.9855 9.75531C23.716 12.1357 23.2835 14.7194 21.8168 16.7303C20.3502 18.7412 18.0226 19.9443 15.5333 19.9758C13.0441 20.0088 10.6867 18.8658 9.16848 16.8936C7.65027 14.9213 7.15042 12.3489 7.81928 9.95125C8.48807 7.55358 10.2469 5.61141 12.5672 4.7091C14.8874 3.80678 17.4956 4.05028 19.6082 5.36652C19.9992 5.60999 20.118 6.12419 19.8746 6.5152C19.6296 6.90477 19.1155 7.02365 18.7259 6.78017C17.0513 5.7346 14.9832 5.53983 13.1427 6.25309C11.3035 6.96775 9.9085 8.506 9.37714 10.4066C8.84577 12.3074 9.24254 14.3469 10.4456 15.9109C11.6505 17.475 13.5208 18.3802 15.4931 18.353C17.4667 18.3272 19.3115 17.3719 20.4731 15.7763C21.6332 14.1792 21.9741 12.1297 21.3926 10.2449Z" fill="#2E2E38"/>
</svg>
